<svg width="0" height="0" class="hidden">
  <symbol xmlns="http://www.w3.org/2000/svg" fill-rule="evenodd" clip-rule="evenodd" stroke-linejoin="round" stroke-miterlimit="2" viewBox="0 0 600 600" id="insta">
    <g fill-rule="nonzero">
      <path d="M300 44c-69.526 0-78.244.295-105.549 1.54-27.248 1.244-45.858 5.571-62.142 11.9-16.834 6.542-31.11 15.296-45.342 29.528-14.232 14.231-22.986 28.508-29.528 45.342-6.329 16.283-10.656 34.893-11.9 62.141C44.295 221.756 44 230.474 44 300c0 69.524.294 78.242 1.54 105.547 1.243 27.248 5.57 45.858 11.9 62.141 6.541 16.834 15.295 31.11 29.527 45.344 14.231 14.231 28.508 22.985 45.342 29.527 16.284 6.328 34.894 10.656 62.142 11.899 27.305 1.245 36.023 1.54 105.549 1.54 69.524 0 78.242-.295 105.547-1.54 27.248-1.243 45.858-5.571 62.141-11.899 16.834-6.542 31.11-15.296 45.344-29.527 14.231-14.233 22.985-28.51 29.527-45.344 6.328-16.283 10.656-34.893 11.899-62.14 1.245-27.306 1.54-36.024 1.54-105.548 0-69.526-.295-78.244-1.54-105.549-1.243-27.248-5.571-45.858-11.899-62.141-6.542-16.834-15.296-31.11-29.527-45.342-14.233-14.232-28.51-22.986-45.344-29.528-16.283-6.329-34.893-10.656-62.14-11.9C378.241 44.296 369.523 44 300 44zm0 46.127c68.354 0 76.45.26 103.445 1.492 24.96 1.139 38.514 5.31 47.535 8.814 11.95 4.644 20.477 10.192 29.435 19.15 8.959 8.958 14.506 17.487 19.15 29.435 3.506 9.02 7.676 22.576 8.815 47.535 1.231 26.995 1.492 35.092 1.492 103.447 0 68.354-.26 76.45-1.492 103.445-1.139 24.96-5.31 38.514-8.815 47.535-4.644 11.95-10.191 20.477-19.15 29.435-8.958 8.959-17.486 14.506-29.435 19.15-9.02 3.506-22.576 7.676-47.535 8.814-26.99 1.232-35.086 1.493-103.445 1.493-68.36 0-76.455-.26-103.447-1.493-24.96-1.138-38.514-5.308-47.535-8.814-11.95-4.644-20.477-10.191-29.436-19.15-8.958-8.958-14.506-17.486-19.149-29.435-3.506-9.02-7.676-22.576-8.815-47.535-1.232-26.994-1.492-35.091-1.492-103.445 0-68.355.26-76.452 1.492-103.447 1.139-24.96 5.31-38.514 8.815-47.535 4.643-11.948 10.191-20.477 19.15-29.435 8.958-8.958 17.486-14.506 29.435-19.15 9.02-3.505 22.576-7.675 47.535-8.814 26.995-1.232 35.092-1.492 103.447-1.492z"></path>
      <path d="M300 385.332c-47.13 0-85.334-38.205-85.334-85.332 0-47.13 38.205-85.334 85.334-85.334 47.127 0 85.332 38.205 85.332 85.334 0 47.127-38.205 85.332-85.332 85.332zm0-216.792c-72.604 0-131.46 58.856-131.46 131.46 0 72.602 58.856 131.458 131.46 131.458 72.602 0 131.458-58.856 131.458-131.458 0-72.604-58.856-131.46-131.458-131.46zm167.372-5.194c0 16.967-13.754 30.72-30.72 30.72s-30.72-13.753-30.72-30.72c0-16.966 13.754-30.719 30.72-30.719s30.72 13.753 30.72 30.72z" fill="#030404"></path>
    </g>
  </symbol>
  <symbol xmlns="http://www.w3.org/2000/svg" fill-rule="evenodd" clip-rule="evenodd" stroke-linejoin="round" stroke-miterlimit="2" viewBox="0 0 512 512" id="L-in">
    <path d="M473.305-1.353c20.88 0 37.885 16.533 37.885 36.926v438.251c0 20.393-17.005 36.954-37.885 36.954H36.846c-20.839 0-37.773-16.561-37.773-36.954V35.573c0-20.393 16.934-36.926 37.773-36.926h436.459zm-37.829 436.389V301.002c0-65.822-14.212-116.427-91.12-116.427-36.955 0-61.739 20.263-71.867 39.476h-1.04V190.64h-72.811v244.396h75.866V314.158c0-31.883 6.031-62.773 45.554-62.773 38.981 0 39.468 36.461 39.468 64.802v118.849h75.95zM150.987 190.64H74.953v244.396h76.034V190.64zM112.99 69.151c-24.395 0-44.066 19.735-44.066 44.047 0 24.318 19.671 44.052 44.066 44.052 24.299 0 44.026-19.734 44.026-44.052 0-24.312-19.727-44.047-44.026-44.047z" fill-rule="nonzero"></path>
  </symbol>
  <symbol xmlns="http://www.w3.org/2000/svg" fill-rule="evenodd" clip-rule="evenodd" stroke-linejoin="round" stroke-miterlimit="2" viewBox="0 0 512 512" id="tw">
    <path d="M161.014 464.013c193.208 0 298.885-160.071 298.885-298.885 0-4.546 0-9.072-.307-13.578A213.737 213.737 0 00512 97.176a209.705 209.705 0 01-60.334 16.527 105.426 105.426 0 0046.182-58.102 210.548 210.548 0 01-66.703 25.498 105.184 105.184 0 00-76.593-33.112c-57.682 0-105.145 47.464-105.145 105.144 0 8.002.914 15.979 2.722 23.773-84.418-4.231-163.18-44.161-216.494-109.752-27.724 47.726-13.379 109.576 32.522 140.226A104.258 104.258 0 0120.48 194.23v1.331c.014 49.814 35.447 93.111 84.275 102.974a104.898 104.898 0 01-47.431 1.802c13.727 42.685 53.311 72.108 98.14 72.95a210.83 210.83 0 01-130.458 45.056A213.688 213.688 0 010 416.827a297.42 297.42 0 00161.014 47.104" fill-rule="nonzero"></path>
  </symbol>
  <symbol xmlns="http://www.w3.org/2000/svg" fill-rule="evenodd" clip-rule="evenodd" stroke-linejoin="round" stroke-miterlimit="2" viewBox="0 0 512 512" id="wapp">
    <path d="M373.295 307.064c-6.37-3.188-37.687-18.596-43.526-20.724-5.838-2.126-10.084-3.187-14.331 3.188-4.246 6.376-16.454 20.725-20.17 24.976-3.715 4.251-7.431 4.785-13.8 1.594-6.37-3.187-26.895-9.913-51.225-31.616-18.935-16.89-31.72-37.749-35.435-44.126-3.716-6.377-.397-9.824 2.792-13 2.867-2.854 6.371-7.44 9.555-11.16 3.186-3.718 4.247-6.377 6.37-10.626 2.123-4.252 1.062-7.971-.532-11.159-1.591-3.188-14.33-34.542-19.638-47.298-5.171-12.419-10.422-10.737-14.332-10.934-3.711-.184-7.963-.223-12.208-.223-4.246 0-11.148 1.594-16.987 7.969-5.838 6.377-22.293 21.789-22.293 53.14 0 31.355 22.824 61.642 26.009 65.894 3.185 4.252 44.916 68.59 108.816 96.181 15.196 6.564 27.062 10.483 36.312 13.418 15.259 4.849 29.145 4.165 40.121 2.524 12.238-1.827 37.686-15.408 42.995-30.286 5.307-14.882 5.307-27.635 3.715-30.292-1.592-2.657-5.838-4.251-12.208-7.44M257.071 465.757h-.086c-38.022-.015-75.313-10.23-107.845-29.535l-7.738-4.592-80.194 21.037 21.405-78.19-5.037-8.017c-21.211-33.735-32.414-72.726-32.397-112.763.047-116.825 95.1-211.87 211.976-211.87 56.595.019 109.795 22.088 149.801 62.139 40.005 40.05 62.023 93.286 62.001 149.902-.048 116.834-95.1 211.889-211.886 211.889M437.403 73.533C389.272 25.347 325.265-1.202 257.068-1.23 116.554-1.23 2.193 113.124 2.136 253.681c-.018 44.932 11.72 88.786 34.03 127.448L0 513.231l135.141-35.45c37.236 20.31 79.159 31.015 121.826 31.029h.105c140.499 0 254.87-114.366 254.928-254.925.026-68.117-26.467-132.166-74.597-180.352"></path>
  </symbol>
  <symbol xmlns="http://www.w3.org/2000/svg" fill-rule="evenodd" clip-rule="evenodd" stroke-linejoin="round" stroke-miterlimit="2" viewBox="0 0 512 512" id="fb">
    <path d="M512 257.555c0-141.385-114.615-256-256-256S0 116.17 0 257.555c0 127.777 93.616 233.685 216 252.89v-178.89h-65v-74h65v-56.4c0-64.16 38.219-99.6 96.695-99.6 28.009 0 57.305 5 57.305 5v63h-32.281c-31.801 0-41.719 19.733-41.719 39.978v48.022h71l-11.35 74H296v178.89c122.385-19.205 216-125.113 216-252.89z" fill-rule="nonzero"></path>
  </symbol>
</svg>